<svg xmlns="http://www.w3.org/2000/svg" xmlns:xlink="http://www.w3.org/1999/xlink" width="500" zoomAndPan="magnify" viewBox="0 0 375 374.999991" height="500" preserveAspectRatio="xMidYMid meet" version="1.0"><defs><clipPath id="7621d2d860"><path d="M 303.089844 310.289062 L 313.933594 310.289062 L 313.933594 328.714844 L 303.089844 328.714844 Z M 303.089844 310.289062 " clip-rule="nonzero"/></clipPath><clipPath id="724a0d9263"><path d="M 310.050781 317.476562 C 304.5 328.5 307.5 314.851562 307.648438 314.851562 C 307.726562 314.925781 307.574219 317.324219 307.199219 318.976562 C 306.601562 321.523438 304.199219 328.425781 303.601562 328.425781 C 303.375 328.425781 303.074219 327.824219 303.148438 327.226562 C 303.226562 325.199219 306.824219 318.074219 308.925781 315.074219 C 310.5 312.976562 313.800781 310.273438 313.875 310.351562 C 313.875 310.425781 310.875 313.199219 309.449219 315.375 C 307.351562 318.601562 303.75 328.648438 303.449219 328.5 C 303.226562 328.425781 307.351562 314.851562 307.648438 314.851562 C 307.875 314.925781 304.648438 328.574219 305.023438 328.648438 C 305.398438 328.800781 308.476562 317.699219 309.523438 317.25 C 309.675781 317.175781 310.050781 317.476562 310.050781 317.476562 " clip-rule="nonzero"/></clipPath><clipPath id="85d251fa59"><path d="M 0.0898438 0.289062 L 10.921875 0.289062 L 10.921875 18.714844 L 0.0898438 18.714844 Z M 0.0898438 0.289062 " clip-rule="nonzero"/></clipPath><clipPath id="b408d6673f"><path d="M 7.050781 7.476562 C 1.5 18.5 4.5 4.851562 4.648438 4.851562 C 4.726562 4.925781 4.574219 7.324219 4.199219 8.976562 C 3.601562 11.523438 1.199219 18.425781 0.601562 18.425781 C 0.375 18.425781 0.0742188 17.824219 0.148438 17.226562 C 0.226562 15.199219 3.824219 8.074219 5.925781 5.074219 C 7.5 2.976562 10.800781 0.273438 10.875 0.351562 C 10.875 0.425781 7.875 3.199219 6.449219 5.375 C 4.351562 8.601562 0.75 18.648438 0.449219 18.5 C 0.226562 18.425781 4.351562 4.851562 4.648438 4.851562 C 4.875 4.925781 1.648438 18.574219 2.023438 18.648438 C 2.398438 18.800781 5.476562 7.699219 6.523438 7.25 C 6.675781 7.175781 7.050781 7.476562 7.050781 7.476562 " clip-rule="nonzero"/></clipPath><clipPath id="efb9c8d365"><rect x="0" width="11" y="0" height="19"/></clipPath><clipPath id="4c5c0b47df"><path d="M 292.332031 311.195312 L 310.59375 311.195312 L 310.59375 337.46875 L 292.332031 337.46875 Z M 292.332031 311.195312 " clip-rule="nonzero"/></clipPath><clipPath id="ac43acfed5"><path d="M 310.5 315 C 308.101562 327.675781 307.199219 330.300781 306.300781 332.25 C 305.699219 333.601562 305.175781 334.800781 304.5 335.625 C 303.898438 336.300781 303.375 336.898438 302.625 337.125 C 301.726562 337.425781 300.300781 337.5 299.476562 337.050781 C 298.726562 336.601562 297.976562 335.25 297.824219 334.425781 C 297.75 333.675781 298.050781 332.925781 298.5 332.175781 C 299.023438 331.125 300.375 330.375 301.050781 328.875 C 302.25 326.324219 301.875 319.726562 303.148438 317.625 C 303.824219 316.574219 304.875 315.976562 305.625 315.675781 C 306.226562 315.523438 306.75 315.601562 307.273438 315.824219 C 307.949219 316.050781 308.773438 316.574219 309.148438 317.324219 C 309.75 318.523438 309.523438 321 309.226562 322.875 C 308.925781 325.050781 308.101562 327.449219 306.976562 329.550781 C 305.925781 331.574219 304.050781 333.898438 302.773438 335.101562 C 302.023438 335.851562 301.5 336.300781 300.675781 336.523438 C 299.699219 336.824219 298.273438 336.898438 297.449219 336.375 C 296.625 335.925781 295.875 334.949219 295.726562 333.675781 C 295.425781 331.351562 298.726562 326.398438 299.476562 323.023438 C 300.074219 320.101562 299.699219 316.199219 300.226562 314.625 C 300.449219 313.875 300.675781 313.574219 301.125 313.199219 C 301.648438 312.75 302.625 312.300781 303.300781 312.226562 C 303.898438 312.226562 304.425781 312.300781 304.949219 312.601562 C 305.550781 312.898438 306.300781 313.5 306.601562 314.324219 C 307.125 315.601562 306.824219 317.851562 306.523438 319.875 C 306.226562 322.199219 305.324219 325.125 304.425781 327.375 C 303.601562 329.398438 302.625 331.425781 301.5 332.851562 C 300.601562 334.050781 299.175781 336 298.574219 335.773438 C 297.976562 335.625 298.574219 333.148438 297.824219 332.476562 C 297 331.726562 294.074219 333 293.25 331.949219 C 292.199219 330.675781 293.101562 325.273438 294 323.324219 C 294.601562 322.125 295.5 321.226562 296.476562 320.773438 C 297.375 320.398438 298.574219 320.625 299.625 320.625 C 300.824219 320.699219 302.324219 320.550781 303.226562 321.074219 C 303.976562 321.449219 304.648438 322.125 304.875 322.949219 C 305.175781 323.773438 305.023438 325.351562 304.5 326.175781 C 303.976562 327 302.851562 327.675781 301.574219 327.675781 C 299.550781 327.75 294.074219 324.976562 293.398438 323.851562 C 293.175781 323.476562 293.324219 323.101562 293.476562 322.726562 C 293.625 322.125 294.074219 321.226562 294.601562 320.773438 C 295.125 320.324219 295.875 319.875 296.625 319.875 C 297.601562 319.875 299.101562 320.476562 299.699219 321.226562 C 300.300781 321.976562 300.523438 323.550781 300.300781 324.449219 C 300.148438 325.199219 299.550781 325.875 298.949219 326.324219 C 298.351562 326.699219 297.523438 327 296.773438 326.925781 C 296.101562 326.925781 295.273438 326.625 294.675781 326.175781 C 294.148438 325.726562 293.625 324.898438 293.476562 324.226562 C 293.324219 323.550781 293.398438 322.648438 293.699219 321.976562 C 294 321.300781 294.523438 320.625 295.199219 320.324219 C 296.023438 319.949219 297.675781 319.800781 298.5 320.25 C 299.398438 320.699219 299.925781 323.023438 300.449219 322.949219 C 300.898438 322.949219 301.125 320.851562 301.574219 320.625 C 301.875 320.476562 302.101562 320.625 302.476562 320.773438 C 303.074219 321 304.5 322.050781 304.875 322.949219 C 305.25 323.625 305.25 324.675781 304.875 325.425781 C 304.5 326.25 303.375 327.300781 302.476562 327.601562 C 301.5 327.898438 299.550781 327.675781 299.175781 327 C 298.726562 326.324219 300 323.476562 300.226562 323.476562 C 300.523438 323.550781 300.675781 331.800781 299.851562 334.199219 C 299.398438 335.550781 298.726562 336.75 297.75 337.199219 C 296.550781 337.648438 293.476562 337.199219 292.726562 336.226562 C 292.050781 335.25 292.574219 333.074219 293.175781 331.574219 C 294 329.625 296.625 328.199219 297.824219 325.726562 C 299.324219 322.574219 299.324219 315.824219 300.601562 313.875 C 301.125 312.976562 301.875 312.601562 302.476562 312.375 C 303.074219 312.226562 303.601562 312.148438 304.125 312.300781 C 304.949219 312.601562 306.148438 313.199219 306.601562 314.324219 C 307.5 316.351562 306.75 321.449219 305.851562 324.976562 C 304.875 328.875 302.476562 335.25 300.675781 336.523438 C 299.851562 337.125 298.875 336.898438 298.199219 336.75 C 297.601562 336.601562 297.148438 336.300781 296.773438 335.851562 C 296.25 335.398438 295.800781 334.351562 295.726562 333.675781 C 295.648438 333.074219 295.648438 332.625 296.023438 332.023438 C 296.550781 330.824219 299.023438 329.625 300.148438 327.675781 C 301.800781 325.050781 301.949219 318.675781 303.523438 316.949219 C 304.425781 315.976562 305.550781 315.601562 306.449219 315.675781 C 307.425781 315.75 308.699219 316.574219 309.148438 317.324219 C 309.601562 318 309.601562 318.601562 309.601562 319.726562 C 309.601562 322.050781 309 327.523438 307.648438 330.523438 C 306.523438 333.226562 304.273438 336.375 302.625 337.125 C 301.574219 337.648438 300.226562 337.351562 299.476562 337.050781 C 298.949219 336.824219 298.648438 336.449219 298.351562 335.925781 C 298.050781 335.324219 297.75 334.648438 297.898438 333.601562 C 298.125 331.351562 301.726562 326.398438 302.925781 322.875 C 303.976562 319.574219 303.75 314.699219 304.726562 312.976562 C 305.175781 312.148438 305.699219 311.699219 306.375 311.476562 C 306.976562 311.175781 307.875 311.175781 308.550781 311.398438 C 309.148438 311.625 309.898438 312.226562 310.199219 312.824219 C 310.574219 313.425781 310.5 315 310.5 315 " clip-rule="nonzero"/></clipPath><clipPath id="63b27aab85"><path d="M 0.332031 0.195312 L 18.59375 0.195312 L 18.59375 26.46875 L 0.332031 26.46875 Z M 0.332031 0.195312 " clip-rule="nonzero"/></clipPath><clipPath id="9078477698"><path d="M 18.5 4 C 16.101562 16.675781 15.199219 19.300781 14.300781 21.25 C 13.699219 22.601562 13.175781 23.800781 12.5 24.625 C 11.898438 25.300781 11.375 25.898438 10.625 26.125 C 9.726562 26.425781 8.300781 26.5 7.476562 26.050781 C 6.726562 25.601562 5.976562 24.25 5.824219 23.425781 C 5.75 22.675781 6.050781 21.925781 6.5 21.175781 C 7.023438 20.125 8.375 19.375 9.050781 17.875 C 10.25 15.324219 9.875 8.726562 11.148438 6.625 C 11.824219 5.574219 12.875 4.976562 13.625 4.675781 C 14.226562 4.523438 14.75 4.601562 15.273438 4.824219 C 15.949219 5.050781 16.773438 5.574219 17.148438 6.324219 C 17.75 7.523438 17.523438 10 17.226562 11.875 C 16.925781 14.050781 16.101562 16.449219 14.976562 18.550781 C 13.925781 20.574219 12.050781 22.898438 10.773438 24.101562 C 10.023438 24.851562 9.5 25.300781 8.675781 25.523438 C 7.699219 25.824219 6.273438 25.898438 5.449219 25.375 C 4.625 24.925781 3.875 23.949219 3.726562 22.675781 C 3.425781 20.351562 6.726562 15.398438 7.476562 12.023438 C 8.074219 9.101562 7.699219 5.199219 8.226562 3.625 C 8.449219 2.875 8.675781 2.574219 9.125 2.199219 C 9.648438 1.75 10.625 1.300781 11.300781 1.226562 C 11.898438 1.226562 12.425781 1.300781 12.949219 1.601562 C 13.550781 1.898438 14.300781 2.5 14.601562 3.324219 C 15.125 4.601562 14.824219 6.851562 14.523438 8.875 C 14.226562 11.199219 13.324219 14.125 12.425781 16.375 C 11.601562 18.398438 10.625 20.425781 9.5 21.851562 C 8.601562 23.050781 7.175781 25 6.574219 24.773438 C 5.976562 24.625 6.574219 22.148438 5.824219 21.476562 C 5 20.726562 2.074219 22 1.25 20.949219 C 0.199219 19.675781 1.101562 14.273438 2 12.324219 C 2.601562 11.125 3.5 10.226562 4.476562 9.773438 C 5.375 9.398438 6.574219 9.625 7.625 9.625 C 8.824219 9.699219 10.324219 9.550781 11.226562 10.074219 C 11.976562 10.449219 12.648438 11.125 12.875 11.949219 C 13.175781 12.773438 13.023438 14.351562 12.5 15.175781 C 11.976562 16 10.851562 16.675781 9.574219 16.675781 C 7.550781 16.75 2.074219 13.976562 1.398438 12.851562 C 1.175781 12.476562 1.324219 12.101562 1.476562 11.726562 C 1.625 11.125 2.074219 10.226562 2.601562 9.773438 C 3.125 9.324219 3.875 8.875 4.625 8.875 C 5.601562 8.875 7.101562 9.476562 7.699219 10.226562 C 8.300781 10.976562 8.523438 12.550781 8.300781 13.449219 C 8.148438 14.199219 7.550781 14.875 6.949219 15.324219 C 6.351562 15.699219 5.523438 16 4.773438 15.925781 C 4.101562 15.925781 3.273438 15.625 2.675781 15.175781 C 2.148438 14.726562 1.625 13.898438 1.476562 13.226562 C 1.324219 12.550781 1.398438 11.648438 1.699219 10.976562 C 2 10.300781 2.523438 9.625 3.199219 9.324219 C 4.023438 8.949219 5.675781 8.800781 6.5 9.25 C 7.398438 9.699219 7.925781 12.023438 8.449219 11.949219 C 8.898438 11.949219 9.125 9.851562 9.574219 9.625 C 9.875 9.476562 10.101562 9.625 10.476562 9.773438 C 11.074219 10 12.5 11.050781 12.875 11.949219 C 13.25 12.625 13.25 13.675781 12.875 14.425781 C 12.5 15.25 11.375 16.300781 10.476562 16.601562 C 9.5 16.898438 7.550781 16.675781 7.175781 16 C 6.726562 15.324219 8 12.476562 8.226562 12.476562 C 8.523438 12.550781 8.675781 20.800781 7.851562 23.199219 C 7.398438 24.550781 6.726562 25.75 5.75 26.199219 C 4.550781 26.648438 1.476562 26.199219 0.726562 25.226562 C 0.0507812 24.25 0.574219 22.074219 1.175781 20.574219 C 2 18.625 4.625 17.199219 5.824219 14.726562 C 7.324219 11.574219 7.324219 4.824219 8.601562 2.875 C 9.125 1.976562 9.875 1.601562 10.476562 1.375 C 11.074219 1.226562 11.601562 1.148438 12.125 1.300781 C 12.949219 1.601562 14.148438 2.199219 14.601562 3.324219 C 15.5 5.351562 14.75 10.449219 13.851562 13.976562 C 12.875 17.875 10.476562 24.25 8.675781 25.523438 C 7.851562 26.125 6.875 25.898438 6.199219 25.75 C 5.601562 25.601562 5.148438 25.300781 4.773438 24.851562 C 4.25 24.398438 3.800781 23.351562 3.726562 22.675781 C 3.648438 22.074219 3.648438 21.625 4.023438 21.023438 C 4.550781 19.824219 7.023438 18.625 8.148438 16.675781 C 9.800781 14.050781 9.949219 7.675781 11.523438 5.949219 C 12.425781 4.976562 13.550781 4.601562 14.449219 4.675781 C 15.425781 4.75 16.699219 5.574219 17.148438 6.324219 C 17.601562 7 17.601562 7.601562 17.601562 8.726562 C 17.601562 11.050781 17 16.523438 15.648438 19.523438 C 14.523438 22.226562 12.273438 25.375 10.625 26.125 C 9.574219 26.648438 8.226562 26.351562 7.476562 26.050781 C 6.949219 25.824219 6.648438 25.449219 6.351562 24.925781 C 6.050781 24.324219 5.75 23.648438 5.898438 22.601562 C 6.125 20.351562 9.726562 15.398438 10.925781 11.875 C 11.976562 8.574219 11.75 3.699219 12.726562 1.976562 C 13.175781 1.148438 13.699219 0.699219 14.375 0.476562 C 14.976562 0.175781 15.875 0.175781 16.550781 0.398438 C 17.148438 0.625 17.898438 1.226562 18.199219 1.824219 C 18.574219 2.425781 18.5 4 18.5 4 " clip-rule="nonzero"/></clipPath><clipPath id="34cbd3ebd7"><rect x="0" width="19" y="0" height="27"/></clipPath><clipPath id="474851d450"><path d="M 286.164062 190.75 L 291.976562 190.75 L 291.976562 196.746094 L 286.164062 196.746094 Z M 286.164062 190.75 " clip-rule="nonzero"/></clipPath><clipPath id="6717d52597"><path d="M 291.976562 192.824219 C 291.226562 196.050781 290.773438 196.273438 290.324219 196.5 C 289.875 196.648438 289.425781 196.800781 288.898438 196.726562 C 288.226562 196.574219 286.949219 195.976562 286.5 195.300781 C 286.125 194.625 286.125 193.199219 286.351562 192.523438 C 286.5 192 286.875 191.699219 287.25 191.398438 C 287.625 191.101562 288.074219 190.800781 288.523438 190.800781 C 289.273438 190.726562 291.226562 191.625 291.226562 191.625 " clip-rule="nonzero"/></clipPath><clipPath id="77b8c2896d"><path d="M 0.164062 0.75 L 5.976562 0.75 L 5.976562 6.746094 L 0.164062 6.746094 Z M 0.164062 0.75 " clip-rule="nonzero"/></clipPath><clipPath id="d04d5230c0"><path d="M 5.976562 2.824219 C 5.226562 6.050781 4.773438 6.273438 4.324219 6.5 C 3.875 6.648438 3.425781 6.800781 2.898438 6.726562 C 2.226562 6.574219 0.949219 5.976562 0.5 5.300781 C 0.125 4.625 0.125 3.199219 0.351562 2.523438 C 0.5 2 0.875 1.699219 1.25 1.398438 C 1.625 1.101562 2.074219 0.800781 2.523438 0.800781 C 3.273438 0.726562 5.226562 1.625 5.226562 1.625 " clip-rule="nonzero"/></clipPath><clipPath id="255b6d4487"><rect x="0" width="6" y="0" height="7"/></clipPath><clipPath id="4b36e91ea2"><path d="M 286.914062 190.527344 L 292.726562 190.527344 L 292.726562 196.519531 L 286.914062 196.519531 Z M 286.914062 190.527344 " clip-rule="nonzero"/></clipPath><clipPath id="6a1f2c7615"><path d="M 292.726562 192.601562 C 291.976562 195.75 291.523438 196.050781 291.074219 196.199219 C 290.699219 196.425781 290.175781 196.574219 289.648438 196.5 C 288.976562 196.351562 287.699219 195.75 287.324219 195.074219 C 286.875 194.324219 286.875 192.976562 287.101562 192.226562 C 287.25 191.773438 287.625 191.398438 288 191.101562 C 288.375 190.875 288.824219 190.574219 289.351562 190.574219 C 290.023438 190.5 291.976562 191.398438 291.976562 191.398438 " clip-rule="nonzero"/></clipPath><clipPath id="f6a9faaf60"><path d="M 0.914062 0.527344 L 6.726562 0.527344 L 6.726562 6.519531 L 0.914062 6.519531 Z M 0.914062 0.527344 " clip-rule="nonzero"/></clipPath><clipPath id="6f473e6184"><path d="M 6.726562 2.601562 C 5.976562 5.75 5.523438 6.050781 5.074219 6.199219 C 4.699219 6.425781 4.175781 6.574219 3.648438 6.5 C 2.976562 6.351562 1.699219 5.75 1.324219 5.074219 C 0.875 4.324219 0.875 2.976562 1.101562 2.226562 C 1.25 1.773438 1.625 1.398438 2 1.101562 C 2.375 0.875 2.824219 0.574219 3.351562 0.574219 C 4.023438 0.5 5.976562 1.398438 5.976562 1.398438 " clip-rule="nonzero"/></clipPath><clipPath id="64c1d242b7"><rect x="0" width="7" y="0" height="7"/></clipPath><clipPath id="5d0200d46a"><path d="M 285.75 192.269531 L 291.460938 192.269531 L 291.460938 198.167969 L 285.75 198.167969 Z M 285.75 192.269531 " clip-rule="nonzero"/></clipPath><clipPath id="c0fded09f7"><path d="M 291.449219 194.398438 C 291.300781 196.5 290.550781 197.625 289.800781 198 C 289.050781 198.300781 287.699219 198.148438 287.023438 197.851562 C 286.574219 197.625 286.273438 197.25 286.050781 196.800781 C 285.75 196.125 285.675781 194.699219 285.824219 194.023438 C 286.050781 193.5 286.351562 193.199219 286.726562 192.898438 C 287.101562 192.601562 287.550781 192.300781 288.074219 192.300781 C 288.75 192.226562 290.699219 193.125 290.699219 193.125 " clip-rule="nonzero"/></clipPath><clipPath id="9f448d5f09"><path d="M 0.75 0.269531 L 6.460938 0.269531 L 6.460938 6.167969 L 0.75 6.167969 Z M 0.75 0.269531 " clip-rule="nonzero"/></clipPath><clipPath id="0b6da35755"><path d="M 6.449219 2.398438 C 6.300781 4.5 5.550781 5.625 4.800781 6 C 4.050781 6.300781 2.699219 6.148438 2.023438 5.851562 C 1.574219 5.625 1.273438 5.25 1.050781 4.800781 C 0.75 4.125 0.675781 2.699219 0.824219 2.023438 C 1.050781 1.5 1.351562 1.199219 1.726562 0.898438 C 2.101562 0.601562 2.550781 0.300781 3.074219 0.300781 C 3.75 0.226562 5.699219 1.125 5.699219 1.125 " clip-rule="nonzero"/></clipPath><clipPath id="0f22d360ad"><rect x="0" width="7" y="0" height="7"/></clipPath><clipPath id="48f9439cfd"><path d="M 286.617188 191.125 L 292.382812 191.125 L 292.382812 197.121094 L 286.617188 197.121094 Z M 286.617188 191.125 " clip-rule="nonzero"/></clipPath><clipPath id="b2c402a4d9"><path d="M 292.351562 193.199219 C 291.601562 196.425781 291.148438 196.648438 290.699219 196.800781 C 290.324219 197.023438 289.800781 197.175781 289.351562 197.101562 C 288.601562 196.949219 287.324219 196.351562 286.949219 195.675781 C 286.5 194.925781 286.574219 193.574219 286.800781 192.898438 C 286.949219 192.375 287.25 192 287.625 191.773438 C 288 191.476562 288.449219 191.175781 288.976562 191.175781 C 289.648438 191.101562 291.601562 192 291.601562 192 " clip-rule="nonzero"/></clipPath><clipPath id="634ccef076"><path d="M 0.617188 0.125 L 6.382812 0.125 L 6.382812 6.121094 L 0.617188 6.121094 Z M 0.617188 0.125 " clip-rule="nonzero"/></clipPath><clipPath id="e082817bfc"><path d="M 6.351562 2.199219 C 5.601562 5.425781 5.148438 5.648438 4.699219 5.800781 C 4.324219 6.023438 3.800781 6.175781 3.351562 6.101562 C 2.601562 5.949219 1.324219 5.351562 0.949219 4.675781 C 0.5 3.925781 0.574219 2.574219 0.800781 1.898438 C 0.949219 1.375 1.25 1 1.625 0.773438 C 2 0.476562 2.449219 0.175781 2.976562 0.175781 C 3.648438 0.101562 5.601562 1 5.601562 1 " clip-rule="nonzero"/></clipPath><clipPath id="4628883f88"><rect x="0" width="7" y="0" height="7"/></clipPath><clipPath id="94b43f794a"><path d="M 286.035156 192.945312 L 291.792969 192.945312 L 291.792969 198.839844 L 286.035156 198.839844 Z M 286.035156 192.945312 " clip-rule="nonzero"/></clipPath><clipPath id="12ace9a278"><path d="M 291.75 195 C 291.601562 197.101562 290.851562 198.300781 290.101562 198.601562 C 289.351562 198.976562 288 198.75 287.324219 198.449219 C 286.875 198.226562 286.574219 197.925781 286.351562 197.476562 C 286.050781 196.800781 285.976562 195.375 286.199219 194.699219 C 286.351562 194.175781 286.648438 193.800781 287.023438 193.574219 C 287.398438 193.273438 287.851562 192.976562 288.375 192.976562 C 289.050781 192.898438 291 193.800781 291 193.800781 " clip-rule="nonzero"/></clipPath><clipPath id="46e213b930"><path d="M 0.0351562 0.945312 L 5.792969 0.945312 L 5.792969 6.839844 L 0.0351562 6.839844 Z M 0.0351562 0.945312 " clip-rule="nonzero"/></clipPath><clipPath id="f243582a99"><path d="M 5.75 3 C 5.601562 5.101562 4.851562 6.300781 4.101562 6.601562 C 3.351562 6.976562 2 6.75 1.324219 6.449219 C 0.875 6.226562 0.574219 5.925781 0.351562 5.476562 C 0.0507812 4.800781 -0.0234375 3.375 0.199219 2.699219 C 0.351562 2.175781 0.648438 1.800781 1.023438 1.574219 C 1.398438 1.273438 1.851562 0.976562 2.375 0.976562 C 3.050781 0.898438 5 1.800781 5 1.800781 " clip-rule="nonzero"/></clipPath><clipPath id="f2172769bc"><rect x="0" width="6" y="0" height="7"/></clipPath><clipPath id="4d28bc854e"><path d="M 287.519531 188.59375 L 293.417969 188.59375 L 293.417969 194.398438 L 287.519531 194.398438 Z M 287.519531 188.59375 " clip-rule="nonzero"/></clipPath><clipPath id="2a98aadcf3"><path d="M 293.398438 190.648438 C 292.648438 193.875 292.273438 194.101562 291.75 194.25 C 291.074219 194.476562 289.648438 194.398438 288.976562 194.101562 C 288.523438 193.875 288.226562 193.5 288 193.125 C 287.773438 192.675781 287.550781 192.226562 287.550781 191.699219 C 287.625 191.023438 288.148438 189.675781 288.675781 189.226562 C 289.050781 188.851562 289.5 188.625 290.023438 188.625 C 290.699219 188.550781 292.648438 189.449219 292.648438 189.449219 " clip-rule="nonzero"/></clipPath><clipPath id="cab7869a2c"><path d="M 0.519531 0.59375 L 6.417969 0.59375 L 6.417969 6.398438 L 0.519531 6.398438 Z M 0.519531 0.59375 " clip-rule="nonzero"/></clipPath><clipPath id="8b31c5d81c"><path d="M 6.398438 2.648438 C 5.648438 5.875 5.273438 6.101562 4.75 6.25 C 4.074219 6.476562 2.648438 6.398438 1.976562 6.101562 C 1.523438 5.875 1.226562 5.5 1 5.125 C 0.773438 4.675781 0.550781 4.226562 0.550781 3.699219 C 0.625 3.023438 1.148438 1.675781 1.675781 1.226562 C 2.050781 0.851562 2.5 0.625 3.023438 0.625 C 3.699219 0.550781 5.648438 1.449219 5.648438 1.449219 " clip-rule="nonzero"/></clipPath><clipPath id="8ea0650824"><rect x="0" width="7" y="0" height="7"/></clipPath><clipPath id="d480e1e7e8"><path d="M 223.945312 236.136719 L 226.054688 236.136719 L 226.054688 238 L 223.945312 238 Z M 223.945312 236.136719 " clip-rule="nonzero"/></clipPath><clipPath id="1522bae4b2"><path d="M 226.050781 236.851562 C 225.148438 238.351562 224.25 238.050781 224.023438 237.75 C 223.875 237.449219 224.023438 236.476562 224.324219 236.25 C 224.625 236.023438 225.824219 236.324219 225.824219 236.324219 " clip-rule="nonzero"/></clipPath><clipPath id="80068936ed"><path d="M 0.945312 0.136719 L 3.054688 0.136719 L 3.054688 2 L 0.945312 2 Z M 0.945312 0.136719 " clip-rule="nonzero"/></clipPath><clipPath id="38f61a08de"><path d="M 3.050781 0.851562 C 2.148438 2.351562 1.25 2.050781 1.023438 1.75 C 0.875 1.449219 1.023438 0.476562 1.324219 0.25 C 1.625 0.0234375 2.824219 0.324219 2.824219 0.324219 " clip-rule="nonzero"/></clipPath><clipPath id="017ac060d5"><rect x="0" width="4" y="0" height="2"/></clipPath><clipPath id="013159becd"><path d="M 219.492188 235.765625 L 229.894531 235.765625 L 229.894531 239.160156 L 219.492188 239.160156 Z M 219.492188 235.765625 " clip-rule="nonzero"/></clipPath><clipPath id="bd8adf9012"><path d="M 220.5 236.625 C 229.574219 236.101562 229.875 236.699219 229.875 237.074219 C 229.800781 237.449219 229.273438 238.199219 228.898438 238.199219 C 228.449219 238.273438 227.324219 237.226562 227.398438 236.773438 C 227.398438 236.398438 228.449219 235.726562 228.898438 235.800781 C 229.273438 235.800781 229.875 236.550781 229.875 236.925781 C 229.800781 237.375 229.273438 237.898438 228.601562 238.273438 C 227.175781 238.949219 221.851562 239.476562 220.5 238.875 C 219.898438 238.648438 219.523438 238.125 219.523438 237.75 C 219.523438 237.375 220.5 236.625 220.5 236.625 " clip-rule="nonzero"/></clipPath><clipPath id="8aaafbb7db"><path d="M 0.492188 0.765625 L 10.894531 0.765625 L 10.894531 4.160156 L 0.492188 4.160156 Z M 0.492188 0.765625 " clip-rule="nonzero"/></clipPath><clipPath id="2ce47f7496"><path d="M 1.5 1.625 C 10.574219 1.101562 10.875 1.699219 10.875 2.074219 C 10.800781 2.449219 10.273438 3.199219 9.898438 3.199219 C 9.449219 3.273438 8.324219 2.226562 8.398438 1.773438 C 8.398438 1.398438 9.449219 0.726562 9.898438 0.800781 C 10.273438 0.800781 10.875 1.550781 10.875 1.925781 C 10.800781 2.375 10.273438 2.898438 9.601562 3.273438 C 8.175781 3.949219 2.851562 4.476562 1.5 3.875 C 0.898438 3.648438 0.523438 3.125 0.523438 2.75 C 0.523438 2.375 1.5 1.625 1.5 1.625 " clip-rule="nonzero"/></clipPath><clipPath id="73909c2beb"><rect x="0" width="11" y="0" height="5"/></clipPath><clipPath id="0e7c39f2f2"><path d="M 220.386719 235.3125 L 232.238281 235.3125 L 232.238281 239.0625 L 220.386719 239.0625 Z M 220.386719 235.3125 " clip-rule="nonzero"/></clipPath><clipPath id="e30a48a2ec"><path d="M 221.324219 236.625 C 231.675781 235.574219 232.199219 236.175781 232.199219 236.625 C 232.273438 237 231.601562 237.75 231.300781 237.75 C 230.851562 237.75 229.726562 236.773438 229.800781 236.324219 C 229.800781 235.949219 230.851562 235.273438 231.300781 235.351562 C 231.675781 235.425781 232.273438 236.101562 232.199219 236.476562 C 232.199219 236.925781 231.675781 237.449219 231 237.75 C 229.351562 238.574219 223.125 239.398438 221.550781 238.875 C 220.875 238.726562 220.425781 238.273438 220.425781 237.898438 C 220.351562 237.523438 221.324219 236.625 221.324219 236.625 " clip-rule="nonzero"/></clipPath><clipPath id="98f37b0c1c"><path d="M 0.386719 0.3125 L 12.238281 0.3125 L 12.238281 4.0625 L 0.386719 4.0625 Z M 0.386719 0.3125 " clip-rule="nonzero"/></clipPath><clipPath id="76608fcbd0"><path d="M 1.324219 1.625 C 11.675781 0.574219 12.199219 1.175781 12.199219 1.625 C 12.273438 2 11.601562 2.75 11.300781 2.75 C 10.851562 2.75 9.726562 1.773438 9.800781 1.324219 C 9.800781 0.949219 10.851562 0.273438 11.300781 0.351562 C 11.675781 0.425781 12.273438 1.101562 12.199219 1.476562 C 12.199219 1.925781 11.675781 2.449219 11 2.75 C 9.351562 3.574219 3.125 4.398438 1.550781 3.875 C 0.875 3.726562 0.425781 3.273438 0.425781 2.898438 C 0.351562 2.523438 1.324219 1.625 1.324219 1.625 " clip-rule="nonzero"/></clipPath><clipPath id="5cf25135b0"><rect x="0" width="13" y="0" height="5"/></clipPath><clipPath id="8521020b73"><path d="M 220.019531 235.089844 L 222.371094 235.089844 L 222.371094 236.410156 L 220.019531 236.410156 Z M 220.019531 235.089844 " clip-rule="nonzero"/></clipPath><clipPath id="dea47afc9d"><path d="M 222.226562 235.875 C 218.398438 237.226562 220.574219 235.5 221.25 235.273438 C 221.699219 235.125 222.226562 235.050781 222.300781 235.125 C 222.449219 235.273438 222.226562 235.875 222.226562 235.875 " clip-rule="nonzero"/></clipPath><clipPath id="24965403ad"><path d="M 0.0195312 0.0898438 L 2.371094 0.0898438 L 2.371094 1.410156 L 0.0195312 1.410156 Z M 0.0195312 0.0898438 " clip-rule="nonzero"/></clipPath><clipPath id="e0286e6f55"><path d="M 2.226562 0.875 C -1.601562 2.226562 0.574219 0.5 1.25 0.273438 C 1.699219 0.125 2.226562 0.0507812 2.300781 0.125 C 2.449219 0.273438 2.226562 0.875 2.226562 0.875 " clip-rule="nonzero"/></clipPath><clipPath id="44a766fd10"><rect x="0" width="3" y="0" height="2"/></clipPath><clipPath id="8f95504572"><path d="M 217.847656 235.246094 L 221.957031 235.246094 L 221.957031 237.851562 L 217.847656 237.851562 Z M 217.847656 235.246094 " clip-rule="nonzero"/></clipPath><clipPath id="018d2726af"><path d="M 221.925781 235.949219 C 218.023438 237.75 217.875 237.148438 217.875 237.148438 C 217.875 237.148438 218.175781 237.824219 218.175781 237.824219 C 218.175781 237.824219 217.800781 237.375 217.875 237.148438 C 218.023438 236.625 221.023438 235.125 221.550781 235.273438 C 221.773438 235.351562 221.925781 235.949219 221.925781 235.949219 " clip-rule="nonzero"/></clipPath><clipPath id="09f5db8d92"><path d="M 0.847656 0.246094 L 4.957031 0.246094 L 4.957031 2.839844 L 0.847656 2.839844 Z M 0.847656 0.246094 " clip-rule="nonzero"/></clipPath><clipPath id="c7332e5f80"><path d="M 4.925781 0.949219 C 1.023438 2.75 0.875 2.148438 0.875 2.148438 C 0.875 2.148438 1.175781 2.824219 1.175781 2.824219 C 1.175781 2.824219 0.800781 2.375 0.875 2.148438 C 1.023438 1.625 4.023438 0.125 4.550781 0.273438 C 4.773438 0.351562 4.925781 0.949219 4.925781 0.949219 " clip-rule="nonzero"/></clipPath><clipPath id="077af5eacd"><rect x="0" width="5" y="0" height="3"/></clipPath><clipPath id="42ba44ad6b"><path d="M 217.984375 235.535156 L 223.152344 235.535156 L 223.152344 237.238281 L 217.984375 237.238281 Z M 217.984375 235.535156 " clip-rule="nonzero"/></clipPath><clipPath id="e07d88eb6b"><path d="M 222.898438 236.324219 C 218.101562 237.074219 218.101562 236.476562 218.101562 236.476562 C 218.175781 236.476562 218.324219 237.226562 218.324219 237.226562 C 218.324219 237.226562 217.875 236.773438 218.023438 236.550781 C 218.175781 236.101562 221.023438 235.648438 222 235.574219 C 222.449219 235.574219 223.050781 235.5 223.125 235.648438 C 223.199219 235.800781 222.898438 236.324219 222.898438 236.324219 " clip-rule="nonzero"/></clipPath><clipPath id="07bb5bad3f"><path d="M 0.984375 0.535156 L 6.152344 0.535156 L 6.152344 2.238281 L 0.984375 2.238281 Z M 0.984375 0.535156 " clip-rule="nonzero"/></clipPath><clipPath id="68a3814a7c"><path d="M 5.898438 1.324219 C 1.101562 2.074219 1.101562 1.476562 1.101562 1.476562 C 1.175781 1.476562 1.324219 2.226562 1.324219 2.226562 C 1.324219 2.226562 0.875 1.773438 1.023438 1.550781 C 1.175781 1.101562 4.023438 0.648438 5 0.574219 C 5.449219 0.574219 6.050781 0.5 6.125 0.648438 C 6.199219 0.800781 5.898438 1.324219 5.898438 1.324219 " clip-rule="nonzero"/></clipPath><clipPath id="f0f707cbb3"><rect x="0" width="7" y="0" height="3"/></clipPath><clipPath id="24e4f887b5"><path d="M 215.140625 236.226562 L 219.039062 236.226562 L 219.039062 238.578125 L 215.140625 238.578125 Z M 215.140625 236.226562 " clip-rule="nonzero"/></clipPath><clipPath id="b9093724e5"><path d="M 218.773438 237.074219 C 215.324219 238.5 215.25 237.824219 215.175781 237.898438 C 215.175781 237.898438 215.324219 238.574219 215.324219 238.574219 C 215.324219 238.574219 215.101562 238.125 215.175781 237.898438 C 215.398438 237.449219 216.898438 236.625 217.574219 236.398438 C 218.101562 236.25 218.851562 236.175781 219 236.324219 C 219.074219 236.476562 218.773438 237.074219 218.773438 237.074219 " clip-rule="nonzero"/></clipPath><clipPath id="ceac853dfa"><path d="M 0.140625 0.226562 L 4.039062 0.226562 L 4.039062 2.578125 L 0.140625 2.578125 Z M 0.140625 0.226562 " clip-rule="nonzero"/></clipPath><clipPath id="8e3db973cc"><path d="M 3.773438 1.074219 C 0.324219 2.5 0.25 1.824219 0.175781 1.898438 C 0.175781 1.898438 0.324219 2.574219 0.324219 2.574219 C 0.324219 2.574219 0.101562 2.125 0.175781 1.898438 C 0.398438 1.449219 1.898438 0.625 2.574219 0.398438 C 3.101562 0.25 3.851562 0.175781 4 0.324219 C 4.074219 0.476562 3.773438 1.074219 3.773438 1.074219 " clip-rule="nonzero"/></clipPath><clipPath id="614c4bdb01"><rect x="0" width="5" y="0" height="3"/></clipPath></defs><path fill="#f4f4f4" d="M 105.75 373.5 C 100.425781 373.125 100.425781 372.449219 105.898438 371.699219 C 109.351562 371.175781 114.449219 368.101562 117.148438 364.949219 C 119.101562 362.550781 123.300781 354.148438 126.375 346.351562 C 135.75 322.648438 145.050781 302.550781 151.199219 292.800781 C 165.074219 270.675781 174.148438 259.726562 187.875 248.476562 C 191.550781 245.476562 208.800781 234.824219 213.375 232.726562 C 214.648438 232.199219 216.148438 231.449219 216.75 231.074219 C 217.351562 230.699219 218.925781 229.949219 220.125 229.425781 C 223.425781 227.925781 236.699219 220.425781 241.800781 217.125 C 247.273438 213.601562 254.925781 206.101562 257.550781 201.523438 C 263.476562 191.476562 264.449219 182.925781 261.148438 170.175781 C 258.449219 159.675781 248.925781 149.25 236.699219 143.25 C 226.050781 138.074219 220.648438 137.25 197.625 137.25 C 176.25 137.25 175.273438 137.398438 173.023438 141.300781 C 172.351562 142.5 172.050781 156.523438 171.75 196.5 C 171.375 245.101562 171.226562 250.351562 170.101562 252.824219 C 168.226562 256.875 165.226562 260.101562 161.699219 261.976562 L 158.625 263.625 L 103.648438 263.851562 C 58.875 264 48.675781 263.851562 48.898438 263.101562 C 49.125 262.574219 50.023438 262.050781 51.074219 261.898438 C 54.976562 261.449219 56.324219 260.925781 58.949219 258.523438 C 60.523438 257.25 62.398438 254.773438 63.148438 253.050781 C 66.300781 245.773438 66.375 243.824219 66.375 135.75 C 66.375 36.226562 66.226562 26.25 64.351562 17.25 C 62.773438 9.75 57 3.824219 51.226562 3.75 C 48.375 3.75 48.675781 2.476562 51.601562 1.949219 C 55.273438 1.351562 110.851562 1.351562 113.925781 1.949219 C 116.699219 2.550781 116.25 3.75 113.25 3.75 C 112.050781 3.75 110.851562 4.125 110.625 4.5 C 110.398438 4.949219 109.574219 5.25 108.75 5.25 C 106.5 5.25 102 10.5 100.425781 14.925781 C 97.199219 24.226562 97.125 26.398438 97.125 140.25 C 97.125 228.601562 97.273438 249.300781 98.101562 252.074219 C 99.226562 255.824219 101.925781 259.199219 104.625 260.25 C 105.601562 260.625 112.574219 261 120.148438 261.074219 C 135.675781 261.226562 136.425781 261 138.898438 256.199219 C 140.324219 253.351562 140.398438 251.773438 140.476562 202.949219 C 140.550781 158.398438 140.398438 152.175781 139.351562 148.726562 C 137.550781 143.023438 136.726562 141.898438 132.898438 139.425781 C 130.199219 137.699219 128.550781 137.25 125.476562 137.25 C 122.25 137.25 121.425781 136.949219 120.75 135.675781 L 119.925781 134.175781 L 179.773438 134.476562 C 220.800781 134.699219 240.75 135.074219 243.226562 135.675781 C 245.175781 136.125 248.175781 136.800781 249.976562 137.175781 C 265.875 140.476562 280.800781 149.625 287.625 160.125 C 292.425781 167.625 293.550781 171.824219 293.550781 182.550781 C 293.625 191.699219 293.550781 192.226562 291.976562 193.273438 C 290.699219 194.101562 290.398438 194.925781 290.699219 196.351562 C 291 197.925781 290.25 199.5 287.023438 203.625 C 279.898438 212.925781 268.125 220.648438 253.875 225.375 C 250.574219 226.425781 247.199219 227.625 246.375 228 C 245.550781 228.375 244.050781 228.824219 243 229.050781 C 241.949219 229.199219 238.574219 230.101562 235.5 231 C 232.425781 231.898438 228.449219 232.949219 226.648438 233.324219 C 224.851562 233.699219 222.75 234.449219 221.925781 235.050781 C 220.574219 235.949219 220.574219 236.101562 221.625 236.550781 C 223.425781 237.226562 225.601562 237.074219 225.898438 236.324219 C 226.273438 235.125 244.351562 233.925781 254.25 234.449219 C 277.273438 235.648438 296.925781 243.675781 310.273438 257.398438 C 323.925781 271.425781 329.925781 288.300781 327.824219 306.976562 C 326.699219 316.726562 325.351562 321.375 321.601562 328.875 C 313.949219 344.023438 302.398438 355.125 285.675781 363.300781 C 278.023438 366.976562 276.601562 367.574219 267.75 369.824219 C 253.726562 373.425781 248.398438 373.648438 177.375 373.726562 C 140.625 373.800781 108.449219 373.726562 105.75 373.5 Z M 213.675781 371.25 C 221.699219 370.875 229.800781 370.273438 231.675781 369.824219 C 233.550781 369.375 237.148438 368.625 239.625 368.175781 C 242.101562 367.648438 245.25 366.75 246.523438 366.226562 C 247.875 365.699219 249.074219 365.25 249.148438 365.25 C 252.375 365.023438 262.949219 359.476562 269.625 354.449219 C 279.824219 346.726562 288.601562 335.101562 291.75 325.125 C 292.273438 323.476562 293.101562 321.449219 293.476562 320.625 C 294.601562 318.675781 294.675781 317.625 295.050781 303 C 295.574219 285.824219 293.550781 277.5 286.351562 266.398438 C 283.199219 261.523438 273.824219 252.300781 270.148438 250.425781 C 269.023438 249.898438 266.925781 248.699219 265.5 247.875 C 254.699219 241.351562 232.949219 238.273438 219.074219 241.199219 C 210.375 243 198.074219 247.5 197.398438 249.148438 C 197.25 249.449219 196.800781 249.75 196.425781 249.75 C 196.050781 249.75 193.351562 251.324219 190.351562 253.199219 C 180.675781 259.425781 173.324219 268.125 166.875 281.101562 C 160.273438 294.449219 159.675781 298.050781 159.226562 328.949219 C 158.773438 362.398438 159.375 367.050781 165 369.824219 C 168.523438 371.550781 192.375 372.226562 213.675781 371.25 Z M 303.449219 330 C 304.351562 327.75 305.324219 325.199219 305.550781 324.449219 C 305.851562 323.25 306.074219 323.175781 307.050781 324 C 308.101562 324.824219 308.25 324.300781 308.25 319.125 C 308.25 315.898438 308.101562 313.425781 307.949219 313.574219 C 306.148438 315.375 301.5 321.449219 301.5 321.898438 C 301.5 322.273438 301.949219 322.5 302.550781 322.5 C 303.449219 322.5 303.300781 323.324219 302.023438 327 C 301.125 329.476562 300.148438 331.5 299.925781 331.5 C 299.699219 331.5 298.949219 330.148438 298.273438 328.5 C 297.449219 326.398438 296.773438 325.648438 296.023438 325.949219 C 295.125 326.25 295.199219 327 296.550781 330.449219 C 297.898438 333.976562 298.351562 334.5 299.925781 334.351562 C 301.425781 334.199219 302.175781 333.226562 303.449219 330 Z M 296.25 322.949219 C 296.25 322.351562 295.949219 321.675781 295.648438 321.449219 C 294.675781 320.851562 293.023438 322.273438 293.550781 323.175781 C 294.300781 324.375 296.25 324.226562 296.25 322.949219 Z M 296.25 322.949219 " fill-opacity="1" fill-rule="nonzero"/><g clip-path="url(#7621d2d860)"><g clip-path="url(#724a0d9263)"><g transform="matrix(1, 0, 0, 1, 303, 310)"><g clip-path="url(#efb9c8d365)"><g clip-path="url(#85d251fa59)"><g clip-path="url(#b408d6673f)"><rect x="-385.5" width="540" fill="#f4f4f4" height="539.999987" y="-392.499998" fill-opacity="1"/></g></g></g></g></g></g><g clip-path="url(#4c5c0b47df)"><g clip-path="url(#ac43acfed5)"><g transform="matrix(1, 0, 0, 1, 292, 311)"><g clip-path="url(#34cbd3ebd7)"><g clip-path="url(#63b27aab85)"><g clip-path="url(#9078477698)"><rect x="-374.5" width="540" fill="#f4f4f4" height="539.999987" y="-393.499998" fill-opacity="1"/></g></g></g></g></g></g><g clip-path="url(#474851d450)"><g clip-path="url(#6717d52597)"><g transform="matrix(1, 0, 0, 1, 286, 190)"><g clip-path="url(#255b6d4487)"><g clip-path="url(#77b8c2896d)"><g clip-path="url(#d04d5230c0)"><rect x="-368.5" width="540" fill="#f4f4f4" height="539.999987" y="-272.499998" fill-opacity="1"/></g></g></g></g></g></g><g clip-path="url(#4b36e91ea2)"><g clip-path="url(#6a1f2c7615)"><g transform="matrix(1, 0, 0, 1, 286, 190)"><g clip-path="url(#64c1d242b7)"><g clip-path="url(#f6a9faaf60)"><g clip-path="url(#6f473e6184)"><rect x="-368.5" width="540" fill="#f4f4f4" height="539.999987" y="-272.499998" fill-opacity="1"/></g></g></g></g></g></g><g clip-path="url(#5d0200d46a)"><g clip-path="url(#c0fded09f7)"><g transform="matrix(1, 0, 0, 1, 285, 192)"><g clip-path="url(#0f22d360ad)"><g clip-path="url(#9f448d5f09)"><g clip-path="url(#0b6da35755)"><rect x="-367.5" width="540" fill="#f4f4f4" height="539.999987" y="-274.499998" fill-opacity="1"/></g></g></g></g></g></g><g clip-path="url(#48f9439cfd)"><g clip-path="url(#b2c402a4d9)"><g transform="matrix(1, 0, 0, 1, 286, 191)"><g clip-path="url(#4628883f88)"><g clip-path="url(#634ccef076)"><g clip-path="url(#e082817bfc)"><rect x="-368.5" width="540" fill="#f4f4f4" height="539.999987" y="-273.499998" fill-opacity="1"/></g></g></g></g></g></g><g clip-path="url(#94b43f794a)"><g clip-path="url(#12ace9a278)"><g transform="matrix(1, 0, 0, 1, 286, 192)"><g clip-path="url(#f2172769bc)"><g clip-path="url(#46e213b930)"><g clip-path="url(#f243582a99)"><rect x="-368.5" width="540" fill="#f4f4f4" height="539.999987" y="-274.499998" fill-opacity="1"/></g></g></g></g></g></g><g clip-path="url(#4d28bc854e)"><g clip-path="url(#2a98aadcf3)"><g transform="matrix(1, 0, 0, 1, 287, 188)"><g clip-path="url(#8ea0650824)"><g clip-path="url(#cab7869a2c)"><g clip-path="url(#8b31c5d81c)"><rect x="-369.5" width="540" fill="#f4f4f4" height="539.999987" y="-270.499998" fill-opacity="1"/></g></g></g></g></g></g><g clip-path="url(#d480e1e7e8)"><g clip-path="url(#1522bae4b2)"><g transform="matrix(1, 0, 0, 1, 223, 236)"><g clip-path="url(#017ac060d5)"><g clip-path="url(#80068936ed)"><g clip-path="url(#38f61a08de)"><rect x="-305.5" width="540" fill="#f4f4f4" height="539.999987" y="-318.499998" fill-opacity="1"/></g></g></g></g></g></g><g clip-path="url(#013159becd)"><g clip-path="url(#bd8adf9012)"><g transform="matrix(1, 0, 0, 1, 219, 235)"><g clip-path="url(#73909c2beb)"><g clip-path="url(#8aaafbb7db)"><g clip-path="url(#2ce47f7496)"><rect x="-301.5" width="540" fill="#f4f4f4" height="539.999987" y="-317.499998" fill-opacity="1"/></g></g></g></g></g></g><g clip-path="url(#0e7c39f2f2)"><g clip-path="url(#e30a48a2ec)"><g transform="matrix(1, 0, 0, 1, 220, 235)"><g clip-path="url(#5cf25135b0)"><g clip-path="url(#98f37b0c1c)"><g clip-path="url(#76608fcbd0)"><rect x="-302.5" width="540" fill="#f4f4f4" height="539.999987" y="-317.499998" fill-opacity="1"/></g></g></g></g></g></g><g clip-path="url(#8521020b73)"><g clip-path="url(#dea47afc9d)"><g transform="matrix(1, 0, 0, 1, 220, 235)"><g clip-path="url(#44a766fd10)"><g clip-path="url(#24965403ad)"><g clip-path="url(#e0286e6f55)"><rect x="-302.5" width="540" fill="#f4f4f4" height="539.999987" y="-317.499998" fill-opacity="1"/></g></g></g></g></g></g><g clip-path="url(#8f95504572)"><g clip-path="url(#018d2726af)"><g transform="matrix(1, 0, 0, 1, 217, 235)"><g clip-path="url(#077af5eacd)"><g clip-path="url(#09f5db8d92)"><g clip-path="url(#c7332e5f80)"><rect x="-299.5" width="540" fill="#f4f4f4" height="539.999987" y="-317.499998" fill-opacity="1"/></g></g></g></g></g></g><g clip-path="url(#42ba44ad6b)"><g clip-path="url(#e07d88eb6b)"><g transform="matrix(1, 0, 0, 1, 217, 235)"><g clip-path="url(#f0f707cbb3)"><g clip-path="url(#07bb5bad3f)"><g clip-path="url(#68a3814a7c)"><rect x="-299.5" width="540" fill="#f4f4f4" height="539.999987" y="-317.499998" fill-opacity="1"/></g></g></g></g></g></g><g clip-path="url(#24e4f887b5)"><g clip-path="url(#b9093724e5)"><g transform="matrix(1, 0, 0, 1, 215, 236)"><g clip-path="url(#614c4bdb01)"><g clip-path="url(#ceac853dfa)"><g clip-path="url(#8e3db973cc)"><rect x="-297.5" width="540" fill="#f4f4f4" height="539.999987" y="-318.499998" fill-opacity="1"/></g></g></g></g></g></g></svg>